<!DOCTYPE svg PUBLIC "-//W3C//DTD SVG 1.1//EN" "http://www.w3.org/Graphics/SVG/1.1/DTD/svg11.dtd">

<!-- Uploaded to: SVG Repo, www.svgrepo.com, Transformed by: SVG Repo Mixer Tools -->
<svg 
fill="#607D8B" 
version="1.1" 
id="Capa_1" 
xmlns="http://www.w3.org/2000/svg" 
xmlns:xlink="http://www.w3.org/1999/xlink" 
width="241px" 
height="241px" 
viewBox="-61.2 -61.2 734.40 734.40" 
xml:space="preserve" 
stroke="#fa9f1d" 
stroke-width="0.0061200000000000004">

<g 
id="SVGRepo_bgCarrier" 
stroke-width="0"
/>

<g 
id="SVGRepo_tracerCarrier" 
stroke-linecap="round" 
stroke-linejoin="round" 
stroke="#CCCCCC" 
stroke-width="6.12"
> 
<g>
 <path 
 d="M568.901,427.833h-51.719v-51.718c0-4.761-3.859-8.62-8.62-8.62h-17.239c-4.761,0-8.62,3.859-8.62,8.62v51.719h-51.718 c-4.761,0-8.62,3.859-8.62,8.62v17.239c0,4.761,3.859,8.62,8.62,8.62h51.719v51.718c0,4.761,3.859,8.62,8.62,8.62h17.239 c4.761,0,8.62-3.859,8.62-8.62v-51.718h51.719c4.761,0,8.62-3.859,8.62-8.62v-17.239 C577.521,431.692,573.662,427.833,568.901,427.833z M303.845,258.377c46.676,0,84.514-37.838,84.514-84.514 s-37.839-84.514-84.515-84.514c-46.675,0-84.514,37.838-84.514,84.514S257.169,258.377,303.845,258.377z M347.887,203.539 c-4.179,17.595-22.078,24.201-43.53,24.201c-21.452,0-39.352-6.606-43.53-24.201H347.887z M448.225,345.904v27.858 c0,4.13-3.83,8.929-7.603,10.606c-14.62,6.506-54.893,19.82-136.382,19.82c-81.674,0-120.376-13.376-134.919-19.864 c-3.399-1.517-5.546-4.942-5.546-8.664v-29.758c0-42.307,31.243-77.308,72.618-81.188c19.034,14.31,42.22,22.902,67.793,22.902 c25.638,0,49.057-8.636,68.107-23.01C414.184,267.894,448.225,303.172,448.225,345.904z M612,270.371v16.487 c0,2.443-2.876,5.284-5.108,6.277c-8.653,3.851-32.794,11.73-81.021,11.73c-48.229,0-72.705-7.88-81.357-11.73 c-2.233-0.993-4.907-3.833-4.907-6.277v-16.487c0-25.256,20.289-46.112,45.025-48.105c11.254,8.503,25.38,13.61,40.549,13.61 c15.2,0,29.273-5.129,40.544-13.664C590.761,223.843,612,244.863,612,270.371z M165.603,293.136 c-8.653,3.851-33.635,11.73-81.863,11.73c-47.515,0-70.75-7.649-79.701-11.557C1.8,292.333,0,289.466,0,287.024v-16.653 c0-24.998,18.154-45.686,42.589-48.039c11.267,8.462,24.912,13.543,40.041,13.543c15.245,0,29.127-5.158,40.432-13.738 c25.495,0.875,49.333,22.221,49.333,48.234v16.487C172.395,289.302,167.835,292.143,165.603,293.136z M82.359,118.491 c-27.625,0-50.019,22.394-50.019,50.019c0,27.624,22.394,50.019,50.019,50.019c27.625,0,50.019-22.394,50.019-50.019 C132.378,140.886,109.984,118.491,82.359,118.491z M82.359,201.325c-12.956,0-23.767-6.202-26.29-14.617h52.581 C106.126,195.124,95.316,201.325,82.359,201.325z M525.331,118.491c-27.625,0-50.019,22.394-50.019,50.019 c0,27.624,22.394,50.019,50.019,50.019c27.624,0,50.019-22.394,50.019-50.019C575.35,140.886,552.955,118.491,525.331,118.491z M525.33,201.325c-12.956,0-23.767-6.202-26.29-14.617h52.581C549.097,195.124,538.287,201.325,525.33,201.325z"/>
  </g>
   </g>

<g 
id="SVGRepo_iconCarrier"> <g>
 <path 
 d="M568.901,427.833h-51.719v-51.718c0-4.761-3.859-8.62-8.62-8.62h-17.239c-4.761,0-8.62,3.859-8.62,8.62v51.719h-51.718 c-4.761,0-8.62,3.859-8.62,8.62v17.239c0,4.761,3.859,8.62,8.62,8.62h51.719v51.718c0,4.761,3.859,8.62,8.62,8.62h17.239 c4.761,0,8.62-3.859,8.62-8.62v-51.718h51.719c4.761,0,8.62-3.859,8.62-8.62v-17.239 C577.521,431.692,573.662,427.833,568.901,427.833z M303.845,258.377c46.676,0,84.514-37.838,84.514-84.514 s-37.839-84.514-84.515-84.514c-46.675,0-84.514,37.838-84.514,84.514S257.169,258.377,303.845,258.377z M347.887,203.539 c-4.179,17.595-22.078,24.201-43.53,24.201c-21.452,0-39.352-6.606-43.53-24.201H347.887z M448.225,345.904v27.858 c0,4.13-3.83,8.929-7.603,10.606c-14.62,6.506-54.893,19.82-136.382,19.82c-81.674,0-120.376-13.376-134.919-19.864 c-3.399-1.517-5.546-4.942-5.546-8.664v-29.758c0-42.307,31.243-77.308,72.618-81.188c19.034,14.31,42.22,22.902,67.793,22.902 c25.638,0,49.057-8.636,68.107-23.01C414.184,267.894,448.225,303.172,448.225,345.904z M612,270.371v16.487 c0,2.443-2.876,5.284-5.108,6.277c-8.653,3.851-32.794,11.73-81.021,11.73c-48.229,0-72.705-7.88-81.357-11.73 c-2.233-0.993-4.907-3.833-4.907-6.277v-16.487c0-25.256,20.289-46.112,45.025-48.105c11.254,8.503,25.38,13.61,40.549,13.61 c15.2,0,29.273-5.129,40.544-13.664C590.761,223.843,612,244.863,612,270.371z M165.603,293.136 c-8.653,3.851-33.635,11.73-81.863,11.73c-47.515,0-70.75-7.649-79.701-11.557C1.8,292.333,0,289.466,0,287.024v-16.653 c0-24.998,18.154-45.686,42.589-48.039c11.267,8.462,24.912,13.543,40.041,13.543c15.245,0,29.127-5.158,40.432-13.738 c25.495,0.875,49.333,22.221,49.333,48.234v16.487C172.395,289.302,167.835,292.143,165.603,293.136z M82.359,118.491 c-27.625,0-50.019,22.394-50.019,50.019c0,27.624,22.394,50.019,50.019,50.019c27.625,0,50.019-22.394,50.019-50.019 C132.378,140.886,109.984,118.491,82.359,118.491z M82.359,201.325c-12.956,0-23.767-6.202-26.29-14.617h52.581 C106.126,195.124,95.316,201.325,82.359,201.325z M525.331,118.491c-27.625,0-50.019,22.394-50.019,50.019 c0,27.624,22.394,50.019,50.019,50.019c27.624,0,50.019-22.394,50.019-50.019C575.35,140.886,552.955,118.491,525.331,118.491z M525.33,201.325c-12.956,0-23.767-6.202-26.29-14.617h52.581C549.097,195.124,538.287,201.325,525.33,201.325z"/> 
 </g> 
 </g>

</svg>